<?xml version="1.0" encoding="UTF-8" standalone="no"?>
<!-- Generator: Adobe Illustrator 19.0.0, SVG Export Plug-In . SVG Version: 6.00 Build 0)  -->

<svg
   xmlns:dc="http://purl.org/dc/elements/1.1/"
   xmlns:cc="http://creativecommons.org/ns#"
   xmlns:rdf="http://www.w3.org/1999/02/22-rdf-syntax-ns#"
   xmlns:svg="http://www.w3.org/2000/svg"
   xmlns="http://www.w3.org/2000/svg"
   xmlns:sodipodi="http://sodipodi.sourceforge.net/DTD/sodipodi-0.dtd"
   xmlns:inkscape="http://www.inkscape.org/namespaces/inkscape"
   version="1.1"
   id="Capa_1"
   x="0px"
   y="0px"
   viewBox="0 0 58 58"
   style="enable-background:new 0 0 58 58;"
   xml:space="preserve"
   sodipodi:docname="upper-folder.svg"
   inkscape:version="0.92.2 5c3e80d, 2017-08-06"><metadata
     id="metadata43"><rdf:RDF><cc:Work
         rdf:about=""><dc:format>image/svg+xml</dc:format><dc:type
           rdf:resource="http://purl.org/dc/dcmitype/StillImage" /><dc:title></dc:title></cc:Work></rdf:RDF></metadata><defs
     id="defs41" /><sodipodi:namedview
     pagecolor="#ffffff"
     bordercolor="#666666"
     borderopacity="1"
     objecttolerance="10"
     gridtolerance="10"
     guidetolerance="10"
     inkscape:pageopacity="0"
     inkscape:pageshadow="2"
     inkscape:window-width="640"
     inkscape:window-height="480"
     id="namedview39"
     showgrid="false"
     inkscape:zoom="4.0689655"
     inkscape:cx="29"
     inkscape:cy="29"
     inkscape:window-x="0"
     inkscape:window-y="30"
     inkscape:window-maximized="0"
     inkscape:current-layer="Capa_1" /><path
     style="fill:#EFCE4A;"
     d="M46.324,52.5H1.565c-1.03,0-1.779-0.978-1.51-1.973l10.166-27.871  c0.184-0.682,0.803-1.156,1.51-1.156H56.49c1.03,0,1.51,0.984,1.51,1.973L47.834,51.344C47.65,52.026,47.031,52.5,46.324,52.5z"
     id="path2" /><g
     id="g6"><path
       style="fill:#EBBA16;"
       d="M50.268,12.5H25l-5-7H1.732C0.776,5.5,0,6.275,0,7.232V49.96c0.069,0.002,0.138,0.006,0.205,0.01   l10.015-27.314c0.184-0.683,0.803-1.156,1.51-1.156H52v-7.268C52,13.275,51.224,12.5,50.268,12.5z"
       id="path4" /></g><g
     id="g8" /><g
     id="g10" /><g
     id="g12" /><g
     id="g14" /><g
     id="g16" /><g
     id="g18" /><g
     id="g20" /><g
     id="g22" /><g
     id="g24" /><g
     id="g26" /><g
     id="g28" /><g
     id="g30" /><g
     id="g32" /><g
     id="g34" /><g
     id="g36" /><line
     style="fill:none;stroke:#424a60;stroke-width:2;stroke-linecap:round;stroke-miterlimit:10"
     x1="28.754238"
     y1="27.228815"
     x2="28.754238"
     y2="4.2288146"
     id="line8" /><line
     style="fill:none;stroke:#424a60;stroke-width:2;stroke-linecap:round;stroke-miterlimit:10"
     x1="28.754238"
     y1="4.2288146"
     x2="36.754238"
     y2="12.228812"
     id="line10" /><line
     style="fill:none;stroke:#424a60;stroke-width:2;stroke-linecap:round;stroke-miterlimit:10"
     x1="20.754238"
     y1="12.228812"
     x2="28.754238"
     y2="4.2288146"
     id="line12" /></svg>